<svg width="296" height="72" viewBox="0 0 296 72" fill="none" xmlns="http://www.w3.org/2000/svg" role="img" aria-labelledby="title desc">
  <title id="title">Besty Boy</title>
  <desc id="desc">Besty Boy gaming marketplace logo</desc>
  <defs>
    <linearGradient id="mark" x1="8" y1="8" x2="58" y2="62" gradientUnits="userSpaceOnUse">
      <stop stop-color="#F43F8F"/>
      <stop offset="0.52" stop-color="#B45CFF"/>
      <stop offset="1" stop-color="#38BDF8"/>
    </linearGradient>
    <linearGradient id="word" x1="82" y1="12" x2="286" y2="60" gradientUnits="userSpaceOnUse">
      <stop stop-color="#FFFFFF"/>
      <stop offset="0.55" stop-color="#D9E9FF"/>
      <stop offset="1" stop-color="#F1A2FF"/>
    </linearGradient>
    <filter id="glow" x="-50%" y="-50%" width="200%" height="200%">
      <feGaussianBlur stdDeviation="3" result="blur"/>
      <feMerge><feMergeNode in="blur"/><feMergeNode in="SourceGraphic"/></feMerge>
    </filter>
  </defs>
  <g filter="url(#glow)">
    <path d="M17 16.5C17 12.91 19.91 10 23.5 10h20C47.09 10 50 12.91 50 16.5v23.1c0 2.65-1.44 5.09-3.75 6.36l-9.76 5.37a6 6 0 0 1-5.78 0l-9.96-5.48A7 7 0 0 1 17 39.73V16.5Z" stroke="url(#mark)" stroke-width="4"/>
    <path d="M24 28h9m-4.5-4.5V32" stroke="#fff" stroke-width="3.2" stroke-linecap="round"/>
    <circle cx="40.5" cy="26" r="2.1" fill="#fff"/>
    <circle cx="44.5" cy="30" r="2.1" fill="#fff"/>
  </g>
  <text x="69" y="45" fill="url(#word)" font-family="Arial, Helvetica, sans-serif" font-size="35" font-weight="800" letter-spacing="-1.5">Besty Boy</text>
</svg>
